<svg aria-hidden="true" style="position: absolute; width: 0; height: 0; overflow: hidden;" version="1.1" xmlns="http://www.w3.org/2000/svg" xmlns:xlink="http://www.w3.org/1999/xlink">
<defs>
<symbol id="icon-search" viewBox="0 0 20 20">
<path d="M12.9 14.32c-1.34 1.049-3.050 1.682-4.908 1.682-4.418 0-8-3.582-8-8s3.582-8 8-8c4.418 0 8 3.582 8 8 0 1.858-0.633 3.567-1.695 4.925l0.013-0.018 5.35 5.33-1.42 1.42-5.33-5.34zM8 14c3.314 0 6-2.686 6-6s-2.686-6-6-6v0c-3.314 0-6 2.686-6 6s2.686 6 6 6v0z"></path>
</symbol>
<symbol id="icon-shopping-cart" viewBox="0 0 20 20">
<path d="M4 2h16l-3 9h-13c-0.552 0-1 0.448-1 1s0.448 1 1 1v0h13v2h-13c-1.657 0-3-1.343-3-3s1.343-3 3-3v0h0.33l-1.33-4-1-3h-2v-2h3c0.552 0 1 0.448 1 1v0 1zM5 20c-1.105 0-2-0.895-2-2s0.895-2 2-2v0c1.105 0 2 0.895 2 2s-0.895 2-2 2v0zM15 20c-1.105 0-2-0.895-2-2s0.895-2 2-2v0c1.105 0 2 0.895 2 2s-0.895 2-2 2v0z"></path>
</symbol>
<symbol id="icon-play-outline" viewBox="0 0 20 20">
<path d="M2.93 17.070c-1.884-1.821-3.053-4.37-3.053-7.193 0-5.523 4.477-10 10-10 2.823 0 5.372 1.169 7.19 3.050l0.003 0.003c1.737 1.796 2.807 4.247 2.807 6.947 0 5.523-4.477 10-10 10-2.7 0-5.151-1.070-6.95-2.81l0.003 0.003zM15.66 15.66c1.449-1.449 2.344-3.45 2.344-5.66 0-4.421-3.584-8.004-8.004-8.004-2.21 0-4.211 0.896-5.66 2.344v0c-1.449 1.449-2.344 3.45-2.344 5.66 0 4.421 3.584 8.004 8.004 8.004 2.21 0 4.211-0.896 5.66-2.344v0zM7 6l8 4-8 4v-8z"></path>
</symbol>
<symbol id="icon-stars" viewBox="0 0 176 32">
<path fill="#e0b420" style="fill: var(--color1, #e0b420)" d="M48 23l-8.25 5 2.187-9.375-7.25-6.313 9.563-0.813 3.75-8.813 3.75 8.813 9.563 0.813-7.25 6.313 2.187 9.375-8.25-5z"></path>
<path fill="#e0b420" style="fill: var(--color1, #e0b420)" d="M112 23l-8.25 5 2.187-9.375-7.25-6.313 9.563-0.813 3.75-8.813 3.75 8.813 9.563 0.813-7.25 6.313 2.187 9.375-8.25-5z"></path>
<path fill="#e0b420" style="fill: var(--color1, #e0b420)" d="M80 23l-8.25 5 2.187-9.375-7.25-6.313 9.563-0.813 3.75-8.813 3.75 8.813 9.563 0.813-7.25 6.313 2.187 9.375-8.25-5z"></path>
<path fill="#e0b420" style="fill: var(--color1, #e0b420)" d="M16 23l-8.25 5 2.188-9.375-7.25-6.313 9.563-0.813 3.75-8.813 3.75 8.813 9.563 0.813-7.25 6.313 2.187 9.375-8.25-5z"></path>
<path fill="#e0b420" style="fill: var(--color1, #e0b420)" d="M144 23l-8.251 5 2.188-9.375-7.25-6.313 9.563-0.813 3.749-8.813 3.749 8.813 9.563 0.813-7.249 6.313 2.188 9.375-8.251-5z"></path>
</symbol>
<symbol id="icon-chevron_right" viewBox="0 0 21 32">
<path d="M5.292 0l16 16-16 16-3.75-3.75 12.25-12.25-12.25-12.25 3.75-3.75z"></path>
</symbol>
<symbol id="icon-study" viewBox="0 0 32 32">
<path fill="#158e5e" style="fill: var(--color1, #158e5e)" d="M0 16c0-8.837 7.163-16 16-16s16 7.163 16 16c0 8.837-7.163 16-16 16s-16-7.163-16-16z"></path>
<path fill="#fff" style="fill: var(--color2, #fff)" d="M16 8l9.792 5.333v7.125h-1.792v-6.167l-8 4.375-9.792-5.333 9.792-5.333zM9.792 17.042l6.208 3.417 6.208-3.417v3.583l-6.208 3.375-6.208-3.375v-3.583z"></path>
</symbol>
<symbol id="icon-shield" viewBox="0 0 32 32">
<path fill="#158e5e" style="fill: var(--color1, #158e5e)" d="M0 16c0-8.837 7.163-16 16-16s16 7.163 16 16c0 8.837-7.163 16-16 16s-16-7.163-16-16z"></path>
<path fill="#fff" style="fill: var(--color2, #fff)" d="M16 6.208l8 3.583v5.333c0 2.472-0.764 4.736-2.292 6.792-1.528 2.028-3.431 3.319-5.708 3.875-2.278-0.556-4.181-1.847-5.708-3.875-1.528-2.056-2.292-4.319-2.292-6.792v-5.333l8-3.583z"></path>
</symbol>
<symbol id="icon-team" viewBox="0 0 32 32">
<path fill="#158e5e" style="fill: var(--color1, #158e5e)" d="M0 16c0-8.837 7.163-16 16-16s16 7.163 16 16c0 8.837-7.163 16-16 16s-16-7.163-16-16z"></path>
<path fill="#fff" style="fill: var(--color2, #fff)" d="M10.417 17.25c1.056-0.25 2.028-0.375 2.917-0.375s1.861 0.125 2.917 0.375c1.056 0.25 2.014 0.667 2.875 1.25 0.889 0.583 1.333 1.236 1.333 1.958v2.667h-14.25v-2.667c0-0.722 0.431-1.375 1.292-1.958 0.889-0.583 1.861-1 2.917-1.25zM18.667 16c-0.361 0-0.75-0.069-1.167-0.208 0.778-0.917 1.167-2.028 1.167-3.333 0-0.528-0.111-1.125-0.333-1.792s-0.5-1.194-0.833-1.583c0.417-0.139 0.806-0.208 1.167-0.208 0.972 0 1.806 0.361 2.5 1.083 0.694 0.694 1.042 1.528 1.042 2.5s-0.347 1.806-1.042 2.5c-0.694 0.694-1.528 1.042-2.5 1.042zM10.833 14.958c-0.694-0.694-1.042-1.528-1.042-2.5s0.347-1.806 1.042-2.5c0.694-0.722 1.528-1.083 2.5-1.083s1.806 0.361 2.5 1.083c0.694 0.694 1.042 1.528 1.042 2.5s-0.347 1.806-1.042 2.5c-0.694 0.694-1.528 1.042-2.5 1.042s-1.806-0.347-2.5-1.042zM20.167 17c1.472 0.222 2.778 0.639 3.917 1.25 1.139 0.583 1.708 1.319 1.708 2.208v2.667h-3.583v-2.667c0-1.361-0.681-2.514-2.042-3.458z"></path>
</symbol>
</defs>
</svg>
